<svg width="180" height="155" viewBox="0 0 180 155" fill="none" xmlns="http://www.w3.org/2000/svg">
<g opacity="0.5">
<path d="M31.0194 146.965L89.9999 44.8174L148.98 146.965H140.182L89.9999 60.8772L39.818 146.965H31.0194Z" fill="#A86FEF"/>
<path d="M55.1518 146.965H65.1949L89.8567 104.06L114.695 146.965H124.393L89.7724 86.9975L55.1518 146.965Z" fill="#A86FEF"/>
</g>
<path d="M146.319 97.5468L147.524 96.721C155.655 91.1178 161.544 82.7424 164.123 73.1538C167.03 62.318 165.547 51.0105 159.943 41.3038C154.34 31.5887 145.291 24.6458 134.464 21.7473C130.891 20.7867 127.217 20.298 123.56 20.298C117.46 20.298 111.292 21.6967 105.706 24.334L104.4 24.9491L90 0L0.5 155.003H179.5L146.327 97.5468H146.319ZM109.573 31.5213C113.946 29.516 118.774 28.4543 123.552 28.4543C126.509 28.4543 129.467 28.8419 132.365 29.6171C141.053 31.9342 148.341 37.5206 152.874 45.3483C157.39 53.1591 158.587 62.2759 156.244 70.9967C154.18 78.698 149.672 85.186 143.218 89.7528L142.224 90.4522L108.478 32.01L109.565 31.5129L109.573 31.5213ZM90 16.0598L165.58 146.965H14.4196L90 16.0598Z" fill="url(#paint0_linear_10869_73811)"/>
<defs>
<linearGradient id="paint0_linear_10869_73811" x1="15" y1="145" x2="201.5" y2="21.5001" gradientUnits="userSpaceOnUse">
<stop stop-color="#472F64"/>
<stop offset="0.46" stop-color="#B98CF2"/>
<stop offset="1" stop-color="#FF7E1A"/>
</linearGradient>
</defs>
</svg>
