<svg width="156" height="34" viewBox="0 0 156 34" fill="none" xmlns="http://www.w3.org/2000/svg">
<g clip-path="url(#clip0_145_4556)">
<path d="M50.1604 21.9397H47.5069V26.6871H44.0142V10.8567H50.5037C54.2918 10.8567 56.5836 13.0934 56.5836 16.329V16.3728C56.5836 20.0365 53.7266 21.9355 50.1646 21.9355L50.1604 21.9397ZM53.0399 16.3982C53.0399 14.8369 51.952 14.0005 50.2042 14.0005H47.5041V18.8383H50.2706C52.0184 18.8383 53.0371 17.797 53.0371 16.4406V16.3968H53.0414L53.0399 16.3982Z" fill="#2B2B2B"/>
<path d="M58.5332 26.6886V10.8567H70.512V13.9567H62.0048V17.1697H69.4891V20.2696H62.0048V23.5957H70.625V26.6956H58.5332V26.6871V26.6886Z" fill="#2B2B2B"/>
<path d="M82.9984 26.6886L79.596 21.6232H76.8521V26.6886H73.3594V10.8567H80.6176C84.3633 10.8567 86.607 12.8249 86.607 16.0817V16.1255C86.607 18.6801 85.2251 20.288 83.2047 21.034L87.0846 26.6871H82.9955L82.9984 26.6886ZM83.0676 16.264C83.0676 14.7733 82.0234 14.0005 80.3237 14.0005H76.8535V18.5458H80.3929C82.0941 18.5458 83.0676 17.6402 83.0676 16.3092V16.2654V16.264Z" fill="#2B2B2B"/>
<path d="M96.6202 27.1124C91.8868 27.1124 88.3687 23.4685 88.3687 18.8595V18.8143C88.3687 14.2534 91.8148 10.5176 96.7615 10.5176C99.795 10.5176 101.613 11.5236 103.108 12.9916L100.856 15.5801C99.6127 14.4554 98.3524 13.7701 96.7388 13.7701C94.0288 13.7701 92.0705 16.0153 92.0705 18.7663V18.8115C92.0705 21.5624 93.9794 23.8514 96.7388 23.8514C98.5771 23.8514 99.7046 23.1181 100.971 21.9708L103.223 24.2385C101.565 26.0047 99.7272 27.1039 96.6244 27.1039L96.6202 27.1124Z" fill="#2B2B2B"/>
<path d="M112.566 27.1124C107.6 27.1124 104.037 23.4219 104.037 18.8595V18.8143C104.037 14.2534 107.647 10.5176 112.609 10.5176C117.571 10.5176 121.139 14.2081 121.139 18.7705V18.8157C121.139 23.3766 117.529 27.1124 112.565 27.1124H112.566ZM117.441 18.8157C117.441 16.0647 115.418 13.7758 112.566 13.7758C109.715 13.7758 107.74 16.0209 107.74 18.7719V18.8171C107.74 21.5681 109.763 23.857 112.615 23.857C115.466 23.857 117.441 21.6119 117.441 18.8609V18.8157Z" fill="#2B2B2B"/>
<path d="M140.372 26.7013L148.186 10.5176L156 26.7027H152.082L148.186 18.649L144.304 26.7027H140.372V26.7013Z" fill="#2B2B2B"/>
<path d="M138.925 10.8623V27.1138L127.007 17.4904V26.6744H123.299V10.5176L135.217 20.1029V10.8609H138.925V10.8623Z" fill="#2B2B2B"/>
<path d="M31.2511 21.2996C35.343 18.6221 36.6824 13.1611 34.2056 8.87007C32.965 6.71676 30.9587 5.17526 28.5595 4.53238C26.337 3.93471 24.0141 4.17914 21.971 5.21199L19.1805 0.376953L13.3889 10.4172L0 33.6232H38.361L31.2511 21.2996ZM27.9039 6.99087C29.6475 7.45572 31.1 8.57618 32.0042 10.1375C33.7817 13.2148 32.8576 17.1159 29.9767 19.087L23.2455 7.4204C24.6952 6.72241 26.3313 6.56982 27.9039 6.98946V6.99087ZM19.1805 5.47339L33.9498 31.0756H25.3084L14.8584 12.9647L19.1805 5.47339ZM4.41116 31.0742L13.3875 15.5179L22.3638 31.0742H4.41116Z" fill="url(#paint0_linear_145_4556)"/>
</g>
<defs>
<linearGradient id="paint0_linear_145_4556" x1="7.86012" y1="37.893" x2="36.3532" y2="9.42393" gradientUnits="userSpaceOnUse">
<stop stop-color="#FC3519"/>
<stop offset="1" stop-color="#F0D136"/>
</linearGradient>
<clipPath id="clip0_145_4556">
<rect width="156" height="33.2462" fill="white" transform="translate(0 0.376953)"/>
</clipPath>
</defs>
</svg>
